<?xml version="1.0" standalone="no"?>
<!DOCTYPE svg PUBLIC "-//W3C//DTD SVG 20010904//EN"
 "http://www.w3.org/TR/2001/REC-SVG-20010904/DTD/svg10.dtd">
<svg version="1.0" xmlns="http://www.w3.org/2000/svg"
 width="329.000000pt" height="342.000000pt" viewBox="0 0 329.000000 342.000000"
 preserveAspectRatio="xMidYMid meet">

<g transform="translate(0.000000,342.000000) scale(0.100000,-0.100000)"
fill="#000000" stroke="none">
<path d="M1555 2995 l-90 -54 -265 -1 -265 -1 -129 -225 -129 -225 -88 -51
-89 -52 0 -101 0 -101 -106 -185 c-58 -101 -119 -207 -135 -234 l-28 -50 28
-50 c16 -28 77 -133 135 -234 l106 -185 0 -96 0 -96 84 -49 84 -48 134 -233
133 -233 272 -1 271 0 86 -51 86 -50 86 50 86 51 266 0 267 1 130 227 130 227
93 55 92 55 0 105 0 105 116 200 c63 110 122 212 129 226 13 24 8 36 -116 250
l-129 224 0 111 0 110 -95 55 -95 54 -128 222 -127 222 -258 1 -259 0 -93 55
c-52 30 -95 55 -97 55 -2 -1 -43 -25 -93 -55z m-226 -129 c-2 -2 -119 -70
-259 -151 -140 -81 -259 -149 -264 -152 -5 -3 6 21 25 53 19 33 59 103 89 156
l55 98 179 0 c99 0 177 -2 175 -4z m1066 -137 c44 -77 82 -144 83 -150 3 -7
-492 273 -507 287 -2 2 74 4 170 4 l174 -1 80 -140z m-1185 -248 c0 -21 -5
-31 -18 -33 -17 -3 9 -85 216 -701 129 -383 236 -696 238 -694 2 1 109 316
238 700 l234 697 -289 0 -289 0 0 30 0 30 331 0 c261 0 330 -3 327 -12 -3 -7
-128 -377 -277 -823 -150 -445 -274 -811 -275 -812 -2 -2 -126 363 -276 810
-150 446 -275 818 -278 825 -3 9 12 12 57 12 61 0 61 0 61 -29z m-712 -929
l-3 -156 -89 154 c-49 85 -89 159 -89 165 0 6 40 80 89 165 l89 154 3 -162 c1
-90 1 -234 0 -320z m2393 316 c45 -78 82 -147 82 -153 0 -12 -162 -295 -169
-295 -2 0 -4 133 -4 295 0 162 2 295 4 295 3 0 42 -64 87 -142z m-1801 -1155
c124 -71 234 -135 245 -141 15 -9 -23 -11 -170 -11 l-190 0 -87 153 c-49 85
-88 157 -88 161 0 4 15 -2 33 -13 17 -11 133 -78 257 -149z m1371 105 c-17
-29 -57 -99 -89 -155 l-57 -103 -185 0 -185 0 150 87 c83 47 202 117 265 154
63 37 119 68 123 68 5 1 -5 -23 -22 -51z"/>
</g>
</svg>
